<?xml version="1.0" encoding="utf-8"?>
<!-- Generator: Adobe Illustrator 16.0.0, SVG Export Plug-In . SVG Version: 6.00 Build 0)  -->
<!DOCTYPE svg PUBLIC "-//W3C//DTD SVG 1.1//EN" "http://www.w3.org/Graphics/SVG/1.1/DTD/svg11.dtd" [
	<!ENTITY st0 "fill:#F7931E;">
	<!ENTITY st1 "fill:#FCEE21;">
	<!ENTITY st2 "fill:none;stroke:#000000;stroke-miterlimit:10;">
	<!ENTITY st3 "fill:#FFFFFF;">
	<!ENTITY st4 "fill:#3FA9F5;">
]>
<svg version="1.1" id="Layer_1" xmlns="http://www.w3.org/2000/svg" xmlns:xlink="http://www.w3.org/1999/xlink" x="0px" y="0px"
	 width="600px" height="490px" viewBox="0 0 600 490" style="enable-background:new 0 0 600 490;" xml:space="preserve">
<g>
	<rect x="200" style="&st0;" width="200" height="50"/>
	<g>
		<path style="&st3;" d="M280.782,20.546c0.456-0.096,1.175-0.168,1.907-0.168c1.043,0,1.715,0.18,2.219,0.588
			c0.42,0.312,0.672,0.792,0.672,1.427c0,0.779-0.516,1.463-1.367,1.775v0.024c0.768,0.192,1.667,0.828,1.667,2.027
			c0,0.696-0.276,1.223-0.684,1.619c-0.564,0.516-1.475,0.755-2.794,0.755c-0.72,0-1.271-0.048-1.619-0.096V20.546z M281.825,23.856
			h0.947c1.104,0,1.751-0.576,1.751-1.355c0-0.948-0.72-1.319-1.775-1.319c-0.48,0-0.755,0.036-0.923,0.072V23.856z M281.825,27.73
			c0.204,0.036,0.503,0.048,0.875,0.048c1.079,0,2.075-0.396,2.075-1.571c0-1.103-0.947-1.559-2.087-1.559h-0.863V27.73z"/>
		<path style="&st3;" d="M287.25,24.528c0-0.684-0.012-1.271-0.048-1.811h0.923l0.036,1.139h0.048
			c0.264-0.779,0.899-1.271,1.607-1.271c0.12,0,0.204,0.012,0.3,0.036v0.996c-0.108-0.024-0.216-0.036-0.36-0.036
			c-0.744,0-1.271,0.564-1.416,1.355c-0.024,0.144-0.048,0.312-0.048,0.492v3.094h-1.043V24.528z"/>
		<path style="&st3;" d="M296.307,25.572c0,2.146-1.487,3.082-2.89,3.082c-1.571,0-2.783-1.151-2.783-2.986
			c0-1.943,1.271-3.082,2.878-3.082C295.18,22.585,296.307,23.796,296.307,25.572z M291.701,25.631c0,1.271,0.732,2.231,1.763,2.231
			c1.007,0,1.763-0.947,1.763-2.255c0-0.983-0.492-2.23-1.739-2.23C292.241,23.377,291.701,24.528,291.701,25.631z"/>
		<path style="&st3;" d="M297.978,22.717l0.768,2.95c0.168,0.647,0.324,1.248,0.432,1.847h0.036
			c0.132-0.588,0.324-1.211,0.516-1.835l0.947-2.962h0.888l0.899,2.902c0.216,0.695,0.384,1.307,0.516,1.895h0.036
			c0.096-0.588,0.252-1.2,0.444-1.883l0.828-2.914h1.043l-1.871,5.805h-0.959l-0.888-2.771c-0.204-0.647-0.372-1.223-0.516-1.907
			h-0.024c-0.144,0.695-0.324,1.295-0.528,1.919l-0.936,2.758h-0.959l-1.751-5.805H297.978z"/>
		<path style="&st3;" d="M306.173,27.442c0.312,0.204,0.864,0.42,1.392,0.42c0.768,0,1.127-0.384,1.127-0.863
			c0-0.504-0.3-0.78-1.079-1.068c-1.043-0.372-1.535-0.947-1.535-1.643c0-0.935,0.755-1.703,2.003-1.703
			c0.587,0,1.103,0.167,1.427,0.359l-0.264,0.768c-0.228-0.144-0.647-0.335-1.187-0.335c-0.624,0-0.972,0.36-0.972,0.792
			c0,0.479,0.348,0.695,1.104,0.983c1.007,0.384,1.523,0.888,1.523,1.751c0,1.02-0.792,1.739-2.171,1.739
			c-0.635,0-1.223-0.156-1.631-0.396L306.173,27.442z"/>
		<path style="&st3;" d="M311.657,25.812c0.024,1.427,0.936,2.015,1.991,2.015c0.755,0,1.211-0.132,1.607-0.3l0.18,0.756
			c-0.372,0.168-1.007,0.36-1.931,0.36c-1.787,0-2.854-1.176-2.854-2.927s1.032-3.13,2.723-3.13c1.895,0,2.399,1.667,2.399,2.734
			c0,0.216-0.024,0.384-0.036,0.492H311.657z M314.751,25.056c0.012-0.671-0.276-1.715-1.463-1.715
			c-1.067,0-1.535,0.983-1.619,1.715H314.751z"/>
		<path style="&st3;" d="M317.082,24.528c0-0.684-0.012-1.271-0.048-1.811h0.923l0.036,1.139h0.048
			c0.264-0.779,0.899-1.271,1.607-1.271c0.12,0,0.204,0.012,0.3,0.036v0.996c-0.108-0.024-0.216-0.036-0.36-0.036
			c-0.744,0-1.271,0.564-1.416,1.355c-0.024,0.144-0.048,0.312-0.048,0.492v3.094h-1.043V24.528z"/>
	</g>
	<rect y="90" style="&st4;" width="600" height="400"/>
	<g>
		<path style="&st3;" d="M17.662,109.735c-0.448,0.225-1.345,0.448-2.493,0.448c-2.662,0-4.665-1.681-4.665-4.776
			c0-2.955,2.003-4.958,4.931-4.958c1.176,0,1.919,0.252,2.241,0.42l-0.294,0.994c-0.462-0.224-1.121-0.392-1.905-0.392
			c-2.213,0-3.684,1.414-3.684,3.894c0,2.312,1.331,3.796,3.628,3.796c0.742,0,1.499-0.153,1.989-0.392L17.662,109.735z"/>
		<path style="&st3;" d="M19.142,100.099h1.233v9.945h-1.233V100.099z"/>
		<path style="&st3;" d="M28.582,106.598c0,2.508-1.737,3.601-3.375,3.601c-1.835,0-3.25-1.345-3.25-3.488
			c0-2.27,1.485-3.6,3.362-3.6C27.265,103.11,28.582,104.525,28.582,106.598z M23.203,106.668c0,1.485,0.854,2.605,2.059,2.605
			c1.177,0,2.059-1.106,2.059-2.634c0-1.148-0.574-2.604-2.031-2.604C23.833,104.035,23.203,105.38,23.203,106.668z"/>
		<path style="&st3;" d="M35.806,108.195c0,0.7,0.014,1.316,0.056,1.849h-1.092l-0.07-1.106h-0.028
			c-0.322,0.546-1.037,1.261-2.241,1.261c-1.064,0-2.339-0.589-2.339-2.97v-3.964h1.233v3.754c0,1.288,0.392,2.157,1.513,2.157
			c0.826,0,1.401-0.574,1.625-1.121c0.07-0.182,0.112-0.406,0.112-0.63v-4.16h1.233V108.195z"/>
		<path style="&st3;" d="M43.702,100.099v8.194c0,0.603,0.014,1.289,0.056,1.751h-1.106l-0.056-1.177h-0.028
			c-0.378,0.757-1.205,1.331-2.312,1.331c-1.639,0-2.899-1.387-2.899-3.446c-0.014-2.255,1.387-3.642,3.04-3.642
			c1.037,0,1.737,0.49,2.045,1.036h0.028v-4.048H43.702z M42.469,106.023c0-0.153-0.014-0.364-0.056-0.518
			c-0.182-0.785-0.854-1.429-1.779-1.429c-1.275,0-2.031,1.12-2.031,2.619c0,1.373,0.672,2.507,2.003,2.507
			c0.826,0,1.583-0.546,1.807-1.471c0.042-0.168,0.056-0.336,0.056-0.532V106.023z"/>
		<path style="&st3;" d="M48.752,100.603h5.085v1.022h-3.866v3.138h3.572v1.009h-3.572v4.272h-1.219V100.603z"/>
		<path style="&st3;" d="M61.229,106.598c0,2.508-1.737,3.601-3.375,3.601c-1.835,0-3.25-1.345-3.25-3.488
			c0-2.27,1.485-3.6,3.362-3.6C59.913,103.11,61.229,104.525,61.229,106.598z M55.85,106.668c0,1.485,0.854,2.605,2.059,2.605
			c1.177,0,2.059-1.106,2.059-2.634c0-1.148-0.574-2.604-2.031-2.604C56.48,104.035,55.85,105.38,55.85,106.668z"/>
		<path style="&st3;" d="M68.453,108.195c0,0.7,0.014,1.316,0.056,1.849h-1.093l-0.069-1.106h-0.028
			c-0.322,0.546-1.036,1.261-2.241,1.261c-1.064,0-2.339-0.589-2.339-2.97v-3.964h1.233v3.754c0,1.288,0.392,2.157,1.513,2.157
			c0.826,0,1.4-0.574,1.625-1.121c0.07-0.182,0.112-0.406,0.112-0.63v-4.16h1.232V108.195z"/>
		<path style="&st3;" d="M70.494,105.1c0-0.701-0.014-1.275-0.056-1.835h1.093l0.069,1.12h0.028c0.336-0.645,1.12-1.274,2.241-1.274
			c0.938,0,2.396,0.561,2.396,2.886v4.048h-1.233v-3.908c0-1.093-0.405-2.003-1.568-2.003c-0.813,0-1.442,0.574-1.653,1.261
			c-0.056,0.154-0.084,0.364-0.084,0.574v4.076h-1.232V105.1z"/>
		<path style="&st3;" d="M84.119,100.099v8.194c0,0.603,0.014,1.289,0.056,1.751h-1.106l-0.056-1.177h-0.028
			c-0.378,0.757-1.205,1.331-2.312,1.331c-1.639,0-2.899-1.387-2.899-3.446c-0.014-2.255,1.387-3.642,3.04-3.642
			c1.036,0,1.736,0.49,2.045,1.036h0.028v-4.048H84.119z M82.887,106.023c0-0.153-0.015-0.364-0.057-0.518
			c-0.182-0.785-0.854-1.429-1.779-1.429c-1.274,0-2.03,1.12-2.03,2.619c0,1.373,0.672,2.507,2.003,2.507
			c0.826,0,1.583-0.546,1.807-1.471c0.042-0.168,0.057-0.336,0.057-0.532V106.023z"/>
		<path style="&st3;" d="M86.159,105.38c0-0.799-0.014-1.485-0.056-2.115h1.078l0.042,1.33h0.057c0.308-0.91,1.05-1.484,1.877-1.484
			c0.14,0,0.237,0.014,0.35,0.042v1.162c-0.126-0.027-0.252-0.042-0.42-0.042c-0.868,0-1.485,0.659-1.653,1.583
			c-0.027,0.168-0.056,0.364-0.056,0.574v3.614h-1.219V105.38z"/>
		<path style="&st3;" d="M91.536,103.265l1.485,4.006c0.153,0.448,0.321,0.98,0.434,1.387h0.028
			c0.126-0.406,0.266-0.925,0.435-1.415l1.345-3.978h1.302l-1.849,4.832c-0.883,2.325-1.484,3.516-2.325,4.244
			c-0.603,0.532-1.205,0.743-1.513,0.799l-0.309-1.036c0.309-0.099,0.715-0.295,1.079-0.603c0.336-0.267,0.756-0.742,1.036-1.373
			c0.057-0.126,0.099-0.224,0.099-0.294s-0.028-0.168-0.084-0.322l-2.508-6.247H91.536z"/>
	</g>
	<rect x="200" y="130" style="&st0;" width="200" height="50"/>
	<g>
		<path style="&st3;" d="M239.962,154.164c0-0.7-0.014-1.274-0.056-1.835h1.093l0.07,1.121h0.028
			c0.336-0.644,1.121-1.274,2.241-1.274c0.938,0,2.395,0.56,2.395,2.885v4.048h-1.232v-3.908c0-1.092-0.406-2.003-1.569-2.003
			c-0.813,0-1.443,0.574-1.653,1.261c-0.056,0.154-0.084,0.364-0.084,0.574v4.076h-1.233V154.164z"/>
		<path style="&st3;" d="M253.574,152.329c-0.028,0.49-0.056,1.037-0.056,1.863v3.936c0,1.555-0.308,2.507-0.966,3.096
			c-0.659,0.616-1.611,0.813-2.465,0.813c-0.813,0-1.709-0.196-2.255-0.561l0.308-0.938c0.448,0.28,1.148,0.532,1.989,0.532
			c1.261,0,2.185-0.658,2.185-2.367v-0.756h-0.028c-0.378,0.63-1.107,1.135-2.157,1.135c-1.681,0-2.886-1.429-2.886-3.306
			c0-2.297,1.499-3.6,3.054-3.6c1.177,0,1.821,0.616,2.115,1.176h0.028l0.056-1.022H253.574z M252.299,155.005
			c0-0.21-0.014-0.393-0.07-0.561c-0.224-0.714-0.827-1.303-1.723-1.303c-1.176,0-2.017,0.995-2.017,2.563
			c0,1.331,0.672,2.438,2.003,2.438c0.756,0,1.442-0.477,1.709-1.261c0.07-0.21,0.098-0.448,0.098-0.659V155.005z"/>
		<path style="&st3;" d="M256.847,150.424c0.014,0.42-0.294,0.756-0.785,0.756c-0.434,0-0.742-0.336-0.742-0.756
			c0-0.435,0.322-0.771,0.77-0.771C256.553,149.654,256.847,149.99,256.847,150.424z M255.474,159.109v-6.78h1.233v6.78H255.474z"/>
		<path style="&st3;" d="M258.75,154.164c0-0.7-0.014-1.274-0.056-1.835h1.093l0.07,1.121h0.028
			c0.336-0.644,1.121-1.274,2.241-1.274c0.938,0,2.395,0.56,2.395,2.885v4.048h-1.232v-3.908c0-1.092-0.406-2.003-1.569-2.003
			c-0.813,0-1.443,0.574-1.653,1.261c-0.056,0.154-0.084,0.364-0.084,0.574v4.076h-1.233V154.164z"/>
		<path style="&st3;" d="M267.094,152.329l0.967,1.457c0.252,0.378,0.462,0.729,0.686,1.106h0.042
			c0.224-0.406,0.448-0.756,0.672-1.121l0.952-1.443h1.331l-2.312,3.278l2.381,3.502h-1.401l-0.994-1.527
			c-0.267-0.392-0.491-0.771-0.729-1.177h-0.028c-0.224,0.406-0.462,0.771-0.714,1.177l-0.98,1.527h-1.359l2.41-3.46l-2.297-3.32
			H267.094z"/>
		<path style="&st3;" d="M274.933,159.669l3.908-10.155h0.953l-3.922,10.155H274.933z"/>
		<path style="&st3;" d="M283.74,154.444c0-0.798-0.014-1.485-0.056-2.115h1.079l0.042,1.331h0.056
			c0.308-0.911,1.051-1.485,1.877-1.485c0.14,0,0.238,0.014,0.351,0.042v1.163c-0.126-0.028-0.252-0.042-0.42-0.042
			c-0.869,0-1.485,0.658-1.653,1.583c-0.028,0.168-0.056,0.364-0.056,0.575v3.614h-1.219V154.444z"/>
		<path style="&st3;" d="M288.864,155.943c0.028,1.667,1.093,2.353,2.325,2.353c0.882,0,1.415-0.154,1.877-0.35l0.21,0.882
			c-0.434,0.196-1.176,0.42-2.255,0.42c-2.087,0-3.334-1.373-3.334-3.418s1.205-3.656,3.18-3.656c2.213,0,2.802,1.947,2.802,3.193
			c0,0.252-0.028,0.448-0.042,0.575H288.864z M292.478,155.061c0.014-0.784-0.322-2.003-1.709-2.003
			c-1.247,0-1.793,1.148-1.891,2.003H292.478z"/>
		<path style="&st3;" d="M295.668,152.329l1.331,3.81c0.224,0.617,0.406,1.177,0.546,1.737h0.042c0.154-0.56,0.35-1.12,0.574-1.737
			l1.317-3.81h1.289l-2.662,6.78h-1.177l-2.577-6.78H295.668z"/>
		<path style="&st3;" d="M302.472,155.943c0.028,1.667,1.093,2.353,2.325,2.353c0.883,0,1.415-0.154,1.877-0.35l0.21,0.882
			c-0.434,0.196-1.177,0.42-2.255,0.42c-2.087,0-3.334-1.373-3.334-3.418s1.205-3.656,3.18-3.656c2.213,0,2.802,1.947,2.802,3.193
			c0,0.252-0.028,0.448-0.042,0.575H302.472z M306.086,155.061c0.014-0.784-0.322-2.003-1.709-2.003
			c-1.247,0-1.793,1.148-1.891,2.003H306.086z"/>
		<path style="&st3;" d="M308.799,154.444c0-0.798-0.014-1.485-0.056-2.115h1.078l0.042,1.331h0.057
			c0.308-0.911,1.05-1.485,1.877-1.485c0.14,0,0.238,0.014,0.35,0.042v1.163c-0.126-0.028-0.252-0.042-0.42-0.042
			c-0.868,0-1.484,0.658-1.653,1.583c-0.027,0.168-0.056,0.364-0.056,0.575v3.614h-1.219V154.444z"/>
		<path style="&st3;" d="M313.209,157.848c0.364,0.238,1.009,0.49,1.625,0.49c0.896,0,1.316-0.448,1.316-1.008
			c0-0.588-0.35-0.911-1.261-1.247c-1.219-0.434-1.793-1.106-1.793-1.919c0-1.092,0.883-1.989,2.34-1.989
			c0.686,0,1.288,0.196,1.667,0.42l-0.309,0.896c-0.267-0.168-0.757-0.392-1.387-0.392c-0.729,0-1.135,0.42-1.135,0.924
			c0,0.561,0.406,0.813,1.289,1.149c1.177,0.448,1.778,1.037,1.778,2.045c0,1.191-0.924,2.031-2.535,2.031
			c-0.742,0-1.429-0.182-1.905-0.462L313.209,157.848z"/>
		<path style="&st3;" d="M319.607,155.943c0.028,1.667,1.093,2.353,2.325,2.353c0.883,0,1.415-0.154,1.877-0.35l0.21,0.882
			c-0.434,0.196-1.177,0.42-2.255,0.42c-2.087,0-3.334-1.373-3.334-3.418s1.205-3.656,3.18-3.656c2.213,0,2.802,1.947,2.802,3.193
			c0,0.252-0.028,0.448-0.042,0.575H319.607z M323.222,155.061c0.014-0.784-0.322-2.003-1.709-2.003
			c-1.247,0-1.793,1.148-1.892,2.003H323.222z"/>
		<path style="&st3;" d="M328.903,154.542c0-0.869-0.028-1.569-0.056-2.213h1.106l0.056,1.163h0.028
			c0.504-0.826,1.303-1.316,2.409-1.316c1.639,0,2.872,1.387,2.872,3.446c0,2.437-1.485,3.642-3.082,3.642
			c-0.896,0-1.681-0.393-2.087-1.065h-0.028v3.684h-1.219V154.542z M330.122,156.35c0,0.182,0.028,0.35,0.056,0.504
			c0.225,0.854,0.967,1.443,1.85,1.443c1.303,0,2.059-1.064,2.059-2.619c0-1.359-0.714-2.521-2.017-2.521
			c-0.841,0-1.625,0.602-1.863,1.527c-0.042,0.154-0.084,0.336-0.084,0.504V156.35z"/>
		<path style="&st3;" d="M336.868,154.444c0-0.798-0.014-1.485-0.056-2.115h1.078l0.042,1.331h0.057
			c0.308-0.911,1.05-1.485,1.877-1.485c0.14,0,0.237,0.014,0.35,0.042v1.163c-0.126-0.028-0.252-0.042-0.42-0.042
			c-0.868,0-1.485,0.658-1.653,1.583c-0.027,0.168-0.056,0.364-0.056,0.575v3.614h-1.219V154.444z"/>
		<path style="&st3;" d="M347.442,155.663c0,2.507-1.737,3.6-3.376,3.6c-1.835,0-3.25-1.345-3.25-3.488c0-2.269,1.484-3.6,3.362-3.6
			C346.125,152.175,347.442,153.59,347.442,155.663z M342.063,155.733c0,1.485,0.854,2.605,2.059,2.605
			c1.177,0,2.06-1.106,2.06-2.633c0-1.148-0.574-2.605-2.031-2.605S342.063,154.444,342.063,155.733z"/>
		<path style="&st3;" d="M349.371,152.329l0.967,1.457c0.252,0.378,0.462,0.729,0.687,1.106h0.042
			c0.224-0.406,0.448-0.756,0.672-1.121l0.953-1.443h1.33l-2.311,3.278l2.381,3.502h-1.4l-0.995-1.527
			c-0.266-0.392-0.49-0.771-0.729-1.177h-0.027c-0.225,0.406-0.463,0.771-0.715,1.177l-0.98,1.527h-1.358l2.409-3.46l-2.298-3.32
			H349.371z"/>
		<path style="&st3;" d="M355.937,152.329l1.485,4.006c0.153,0.448,0.321,0.98,0.434,1.387h0.028
			c0.126-0.406,0.266-0.924,0.435-1.415l1.345-3.979h1.302l-1.849,4.833c-0.883,2.326-1.484,3.516-2.325,4.245
			c-0.603,0.532-1.205,0.742-1.513,0.798l-0.309-1.037c0.309-0.098,0.715-0.294,1.079-0.603c0.336-0.266,0.756-0.742,1.036-1.373
			c0.057-0.126,0.099-0.224,0.099-0.294c0-0.07-0.028-0.168-0.084-0.322l-2.508-6.248H355.937z"/>
	</g>
	<rect x="80" y="255" style="&st3;" width="100" height="50"/>
	<rect x="420" y="255" style="&st3;" width="100" height="50"/>
	<rect x="307" y="255" style="&st3;" width="100" height="50"/>
	<rect x="193" y="255" style="&st3;" width="100" height="50"/>
	<g>
		<path d="M113.019,274.448c0.364,0.238,1.008,0.49,1.625,0.49c0.896,0,1.316-0.448,1.316-1.009c0-0.588-0.35-0.91-1.261-1.246
			c-1.218-0.435-1.793-1.107-1.793-1.919c0-1.092,0.883-1.989,2.339-1.989c0.687,0,1.289,0.196,1.667,0.42l-0.308,0.896
			c-0.266-0.168-0.756-0.392-1.387-0.392c-0.729,0-1.135,0.42-1.135,0.924c0,0.561,0.406,0.813,1.289,1.149
			c1.177,0.448,1.779,1.037,1.779,2.045c0,1.19-0.925,2.03-2.536,2.03c-0.742,0-1.429-0.182-1.905-0.462L113.019,274.448z"/>
		<path d="M119.417,272.543c0.028,1.667,1.093,2.353,2.325,2.353c0.882,0,1.415-0.154,1.877-0.351l0.21,0.883
			c-0.434,0.196-1.176,0.42-2.255,0.42c-2.087,0-3.334-1.372-3.334-3.417c0-2.045,1.205-3.656,3.18-3.656
			c2.213,0,2.802,1.947,2.802,3.193c0,0.252-0.028,0.448-0.042,0.575H119.417z M123.031,271.661
			c0.014-0.784-0.322-2.003-1.709-2.003c-1.247,0-1.793,1.148-1.891,2.003H123.031z"/>
		<path d="M125.744,271.044c0-0.798-0.014-1.485-0.056-2.115h1.079l0.042,1.331h0.056c0.308-0.911,1.051-1.485,1.877-1.485
			c0.14,0,0.238,0.014,0.35,0.042v1.163c-0.126-0.028-0.252-0.042-0.42-0.042c-0.869,0-1.485,0.658-1.653,1.583
			c-0.028,0.168-0.056,0.364-0.056,0.575v3.614h-1.219V271.044z"/>
		<path d="M131.149,268.929l1.331,3.81c0.224,0.616,0.406,1.177,0.546,1.737h0.042c0.154-0.561,0.35-1.121,0.574-1.737l1.317-3.81
			h1.289l-2.662,6.78h-1.177l-2.577-6.78H131.149z"/>
		<path d="M137.953,272.543c0.028,1.667,1.092,2.353,2.325,2.353c0.882,0,1.415-0.154,1.877-0.351l0.21,0.883
			c-0.434,0.196-1.176,0.42-2.255,0.42c-2.087,0-3.334-1.372-3.334-3.417c0-2.045,1.205-3.656,3.18-3.656
			c2.213,0,2.802,1.947,2.802,3.193c0,0.252-0.028,0.448-0.042,0.575H137.953z M141.566,271.661
			c0.014-0.784-0.322-2.003-1.709-2.003c-1.247,0-1.793,1.148-1.891,2.003H141.566z"/>
		<path d="M144.28,271.044c0-0.798-0.014-1.485-0.056-2.115h1.079l0.042,1.331h0.056c0.308-0.911,1.051-1.485,1.877-1.485
			c0.14,0,0.238,0.014,0.351,0.042v1.163c-0.126-0.028-0.252-0.042-0.42-0.042c-0.869,0-1.485,0.658-1.653,1.583
			c-0.028,0.168-0.056,0.364-0.056,0.575v3.614h-1.219V271.044z"/>
		<path d="M102.849,283.824c0.014,0.42-0.294,0.756-0.785,0.756c-0.434,0-0.742-0.336-0.742-0.756c0-0.435,0.322-0.771,0.77-0.771
			C102.555,283.054,102.849,283.39,102.849,283.824z M101.476,292.509v-6.779h1.233v6.779H101.476z"/>
		<path d="M104.752,287.564c0-0.701-0.014-1.275-0.056-1.835h1.093l0.07,1.12h0.028c0.336-0.645,1.121-1.274,2.241-1.274
			c0.938,0,2.395,0.561,2.395,2.886v4.048h-1.232v-3.908c0-1.093-0.406-2.003-1.569-2.003c-0.813,0-1.443,0.574-1.653,1.261
			c-0.056,0.154-0.084,0.364-0.084,0.574v4.076h-1.233V287.564z"/>
		<path d="M112.354,291.248c0.364,0.238,1.008,0.49,1.625,0.49c0.896,0,1.316-0.448,1.316-1.009c0-0.588-0.35-0.91-1.261-1.246
			c-1.218-0.435-1.793-1.106-1.793-1.919c0-1.093,0.883-1.989,2.339-1.989c0.687,0,1.289,0.196,1.667,0.42l-0.308,0.896
			c-0.266-0.168-0.756-0.392-1.387-0.392c-0.729,0-1.135,0.42-1.135,0.924c0,0.561,0.406,0.813,1.289,1.148
			c1.177,0.448,1.779,1.037,1.779,2.046c0,1.19-0.925,2.03-2.536,2.03c-0.742,0-1.429-0.182-1.905-0.462L112.354,291.248z"/>
		<path d="M119.551,283.782v1.947h1.765v0.938h-1.765v3.655c0,0.841,0.238,1.317,0.924,1.317c0.322,0,0.561-0.042,0.714-0.084
			l0.056,0.924c-0.238,0.099-0.616,0.168-1.092,0.168c-0.575,0-1.037-0.182-1.331-0.518c-0.35-0.364-0.476-0.967-0.476-1.766v-3.697
			h-1.051v-0.938h1.051v-1.625L119.551,283.782z"/>
		<path d="M126.454,292.509l-0.098-0.854h-0.042c-0.378,0.532-1.107,1.009-2.073,1.009c-1.373,0-2.073-0.967-2.073-1.947
			c0-1.639,1.457-2.535,4.076-2.521v-0.14c0-0.561-0.154-1.569-1.541-1.569c-0.63,0-1.289,0.196-1.765,0.505l-0.28-0.813
			c0.561-0.364,1.373-0.603,2.227-0.603c2.073,0,2.578,1.415,2.578,2.773v2.535c0,0.589,0.028,1.163,0.112,1.625H126.454z
			 M126.271,289.049c-1.345-0.028-2.871,0.21-2.871,1.527c0,0.798,0.532,1.176,1.163,1.176c0.882,0,1.442-0.56,1.639-1.134
			c0.042-0.127,0.07-0.267,0.07-0.393V289.049z"/>
		<path d="M129.448,287.564c0-0.701-0.014-1.275-0.056-1.835h1.093l0.07,1.12h0.028c0.336-0.645,1.121-1.274,2.241-1.274
			c0.938,0,2.395,0.561,2.395,2.886v4.048h-1.232v-3.908c0-1.093-0.406-2.003-1.569-2.003c-0.813,0-1.443,0.574-1.653,1.261
			c-0.056,0.154-0.084,0.364-0.084,0.574v4.076h-1.233V287.564z"/>
		<path d="M142.05,292.257c-0.322,0.168-1.037,0.392-1.947,0.392c-2.045,0-3.376-1.387-3.376-3.459c0-2.088,1.429-3.601,3.642-3.601
			c0.729,0,1.373,0.183,1.709,0.351l-0.28,0.952c-0.294-0.168-0.756-0.322-1.429-0.322c-1.555,0-2.396,1.148-2.396,2.563
			c0,1.569,1.009,2.535,2.354,2.535c0.7,0,1.163-0.182,1.513-0.336L142.05,292.257z"/>
		<path d="M144.092,289.343c0.028,1.667,1.092,2.354,2.325,2.354c0.882,0,1.415-0.154,1.877-0.351l0.21,0.883
			c-0.434,0.196-1.176,0.42-2.255,0.42c-2.087,0-3.334-1.372-3.334-3.417c0-2.046,1.205-3.656,3.18-3.656
			c2.213,0,2.802,1.947,2.802,3.193c0,0.252-0.028,0.448-0.042,0.574H144.092z M147.706,288.461
			c0.014-0.785-0.322-2.003-1.709-2.003c-1.247,0-1.793,1.148-1.891,2.003H147.706z"/>
		<path d="M155.67,284.553h-0.028l-1.583,0.854l-0.238-0.938l1.989-1.064h1.051v9.104h-1.191V284.553z"/>
	</g>
	<g>
		<path d="M226.018,274.448c0.364,0.238,1.008,0.49,1.625,0.49c0.896,0,1.316-0.448,1.316-1.008c0-0.588-0.35-0.911-1.261-1.247
			c-1.218-0.435-1.793-1.107-1.793-1.919c0-1.092,0.883-1.989,2.339-1.989c0.687,0,1.289,0.196,1.667,0.42l-0.308,0.896
			c-0.266-0.168-0.756-0.392-1.387-0.392c-0.729,0-1.135,0.42-1.135,0.924c0,0.561,0.406,0.813,1.289,1.149
			c1.177,0.448,1.779,1.037,1.779,2.045c0,1.191-0.925,2.031-2.536,2.031c-0.742,0-1.429-0.182-1.905-0.462L226.018,274.448z"/>
		<path d="M232.417,272.543c0.028,1.667,1.092,2.353,2.325,2.353c0.882,0,1.415-0.154,1.877-0.35l0.21,0.882
			c-0.434,0.196-1.176,0.42-2.255,0.42c-2.087,0-3.334-1.373-3.334-3.418c0-2.045,1.205-3.656,3.18-3.656
			c2.213,0,2.802,1.947,2.802,3.193c0,0.252-0.028,0.448-0.042,0.575H232.417z M236.03,271.661c0.014-0.784-0.322-2.003-1.709-2.003
			c-1.247,0-1.793,1.148-1.891,2.003H236.03z"/>
		<path d="M238.744,271.044c0-0.798-0.014-1.485-0.056-2.115h1.079l0.042,1.331h0.056c0.308-0.911,1.051-1.485,1.877-1.485
			c0.14,0,0.238,0.014,0.351,0.042v1.163c-0.126-0.028-0.252-0.042-0.42-0.042c-0.869,0-1.485,0.658-1.653,1.583
			c-0.028,0.168-0.056,0.364-0.056,0.575v3.614h-1.219V271.044z"/>
		<path d="M244.148,268.929l1.331,3.81c0.224,0.616,0.406,1.177,0.546,1.737h0.042c0.154-0.561,0.35-1.121,0.574-1.737l1.317-3.81
			h1.289l-2.662,6.78h-1.177l-2.577-6.78H244.148z"/>
		<path d="M250.952,272.543c0.028,1.667,1.093,2.353,2.325,2.353c0.882,0,1.415-0.154,1.877-0.35l0.21,0.882
			c-0.434,0.196-1.176,0.42-2.255,0.42c-2.087,0-3.334-1.373-3.334-3.418c0-2.045,1.205-3.656,3.18-3.656
			c2.213,0,2.802,1.947,2.802,3.193c0,0.252-0.028,0.448-0.042,0.575H250.952z M254.566,271.661
			c0.014-0.784-0.322-2.003-1.709-2.003c-1.247,0-1.793,1.148-1.891,2.003H254.566z"/>
		<path d="M257.279,271.044c0-0.798-0.014-1.485-0.056-2.115h1.079l0.042,1.331h0.056c0.308-0.911,1.051-1.485,1.877-1.485
			c0.14,0,0.238,0.014,0.35,0.042v1.163c-0.126-0.028-0.252-0.042-0.42-0.042c-0.869,0-1.485,0.658-1.653,1.583
			c-0.028,0.168-0.056,0.364-0.056,0.575v3.614h-1.219V271.044z"/>
		<path d="M215.849,283.824c0.014,0.42-0.294,0.756-0.785,0.756c-0.434,0-0.742-0.336-0.742-0.756c0-0.435,0.322-0.771,0.77-0.771
			C215.554,283.054,215.849,283.39,215.849,283.824z M214.476,292.509v-6.779h1.233v6.779H214.476z"/>
		<path d="M217.751,287.564c0-0.701-0.014-1.275-0.056-1.835h1.093l0.07,1.12h0.028c0.336-0.645,1.121-1.274,2.241-1.274
			c0.938,0,2.395,0.561,2.395,2.886v4.048h-1.232v-3.908c0-1.093-0.406-2.003-1.569-2.003c-0.813,0-1.443,0.574-1.653,1.261
			c-0.056,0.154-0.084,0.364-0.084,0.574v4.076h-1.233V287.564z"/>
		<path d="M225.354,291.248c0.364,0.238,1.008,0.49,1.625,0.49c0.896,0,1.316-0.448,1.316-1.009c0-0.588-0.35-0.91-1.261-1.246
			c-1.218-0.435-1.793-1.106-1.793-1.919c0-1.093,0.883-1.989,2.339-1.989c0.687,0,1.289,0.196,1.667,0.42l-0.308,0.896
			c-0.266-0.168-0.756-0.392-1.387-0.392c-0.729,0-1.135,0.42-1.135,0.924c0,0.561,0.406,0.813,1.289,1.148
			c1.177,0.448,1.779,1.037,1.779,2.046c0,1.19-0.925,2.03-2.536,2.03c-0.742,0-1.429-0.182-1.905-0.462L225.354,291.248z"/>
		<path d="M232.55,283.782v1.947h1.765v0.938h-1.765v3.655c0,0.841,0.238,1.317,0.924,1.317c0.322,0,0.561-0.042,0.715-0.084
			l0.056,0.924c-0.238,0.099-0.616,0.168-1.092,0.168c-0.575,0-1.037-0.182-1.331-0.518c-0.35-0.364-0.476-0.967-0.476-1.766v-3.697
			h-1.051v-0.938h1.051v-1.625L232.55,283.782z"/>
		<path d="M239.453,292.509l-0.098-0.854h-0.042c-0.378,0.532-1.107,1.009-2.073,1.009c-1.373,0-2.073-0.967-2.073-1.947
			c0-1.639,1.457-2.535,4.076-2.521v-0.14c0-0.561-0.154-1.569-1.541-1.569c-0.63,0-1.289,0.196-1.765,0.505l-0.28-0.813
			c0.561-0.364,1.373-0.603,2.227-0.603c2.073,0,2.578,1.415,2.578,2.773v2.535c0,0.589,0.028,1.163,0.112,1.625H239.453z
			 M239.271,289.049c-1.345-0.028-2.872,0.21-2.872,1.527c0,0.798,0.532,1.176,1.163,1.176c0.882,0,1.442-0.56,1.639-1.134
			c0.042-0.126,0.07-0.267,0.07-0.393V289.049z"/>
		<path d="M242.447,287.564c0-0.701-0.014-1.275-0.056-1.835h1.093l0.07,1.12h0.028c0.336-0.645,1.121-1.274,2.241-1.274
			c0.938,0,2.395,0.561,2.395,2.886v4.048h-1.232v-3.908c0-1.093-0.406-2.003-1.569-2.003c-0.813,0-1.443,0.574-1.653,1.261
			c-0.056,0.154-0.084,0.364-0.084,0.574v4.076h-1.233V287.564z"/>
		<path d="M255.05,292.257c-0.322,0.168-1.036,0.392-1.947,0.392c-2.045,0-3.376-1.387-3.376-3.459c0-2.088,1.429-3.601,3.642-3.601
			c0.729,0,1.373,0.183,1.709,0.351l-0.28,0.952c-0.294-0.168-0.756-0.322-1.429-0.322c-1.555,0-2.396,1.148-2.396,2.563
			c0,1.569,1.009,2.535,2.354,2.535c0.7,0,1.163-0.182,1.513-0.336L255.05,292.257z"/>
		<path d="M257.092,289.343c0.028,1.667,1.093,2.354,2.325,2.354c0.882,0,1.415-0.154,1.877-0.351l0.21,0.883
			c-0.434,0.196-1.176,0.42-2.255,0.42c-2.087,0-3.334-1.372-3.334-3.417c0-2.046,1.205-3.656,3.18-3.656
			c2.213,0,2.802,1.947,2.802,3.193c0,0.252-0.028,0.448-0.042,0.574H257.092z M260.706,288.461
			c0.014-0.785-0.322-2.004-1.709-2.004c-1.247,0-1.793,1.149-1.891,2.004H260.706z"/>
		<path d="M265.995,292.509v-0.757l0.966-0.938c2.325-2.213,3.376-3.39,3.39-4.762c0-0.925-0.448-1.779-1.807-1.779
			c-0.826,0-1.513,0.42-1.933,0.771l-0.392-0.869c0.63-0.532,1.527-0.924,2.577-0.924c1.961,0,2.788,1.345,2.788,2.647
			c0,1.681-1.219,3.039-3.138,4.889l-0.728,0.672v0.028h4.09v1.022H265.995z"/>
	</g>
	<g>
		<path d="M340.019,274.448c0.364,0.238,1.009,0.49,1.625,0.49c0.896,0,1.316-0.448,1.316-1.008c0-0.588-0.35-0.911-1.261-1.247
			c-1.219-0.435-1.793-1.107-1.793-1.919c0-1.092,0.883-1.989,2.34-1.989c0.686,0,1.288,0.196,1.667,0.42l-0.309,0.896
			c-0.267-0.168-0.757-0.392-1.387-0.392c-0.729,0-1.135,0.42-1.135,0.924c0,0.561,0.406,0.813,1.289,1.149
			c1.177,0.448,1.778,1.037,1.778,2.045c0,1.191-0.924,2.031-2.535,2.031c-0.742,0-1.429-0.182-1.905-0.462L340.019,274.448z"/>
		<path d="M346.417,272.543c0.028,1.667,1.093,2.353,2.325,2.353c0.883,0,1.415-0.154,1.877-0.35l0.21,0.882
			c-0.434,0.196-1.177,0.42-2.255,0.42c-2.087,0-3.334-1.373-3.334-3.418c0-2.045,1.205-3.656,3.18-3.656
			c2.213,0,2.802,1.947,2.802,3.193c0,0.252-0.028,0.448-0.042,0.575H346.417z M350.031,271.661
			c0.014-0.784-0.322-2.003-1.709-2.003c-1.247,0-1.793,1.148-1.892,2.003H350.031z"/>
		<path d="M352.744,271.044c0-0.798-0.014-1.485-0.056-2.115h1.078l0.042,1.331h0.057c0.308-0.911,1.05-1.485,1.877-1.485
			c0.14,0,0.237,0.014,0.35,0.042v1.163c-0.126-0.028-0.252-0.042-0.42-0.042c-0.868,0-1.485,0.658-1.653,1.583
			c-0.027,0.168-0.056,0.364-0.056,0.575v3.614h-1.219V271.044z"/>
		<path d="M358.148,268.929l1.33,3.81c0.225,0.616,0.406,1.177,0.547,1.737h0.042c0.154-0.561,0.35-1.121,0.574-1.737l1.316-3.81
			h1.289l-2.661,6.78h-1.177l-2.578-6.78H358.148z"/>
		<path d="M364.952,272.543c0.028,1.667,1.093,2.353,2.325,2.353c0.883,0,1.415-0.154,1.877-0.35l0.21,0.882
			c-0.434,0.196-1.177,0.42-2.255,0.42c-2.087,0-3.334-1.373-3.334-3.418c0-2.045,1.205-3.656,3.18-3.656
			c2.213,0,2.802,1.947,2.802,3.193c0,0.252-0.028,0.448-0.042,0.575H364.952z M368.566,271.661
			c0.014-0.784-0.322-2.003-1.709-2.003c-1.247,0-1.793,1.148-1.892,2.003H368.566z"/>
		<path d="M371.28,271.044c0-0.798-0.014-1.485-0.056-2.115h1.078l0.042,1.331h0.057c0.308-0.911,1.05-1.485,1.877-1.485
			c0.14,0,0.238,0.014,0.35,0.042v1.163c-0.126-0.028-0.252-0.042-0.42-0.042c-0.868,0-1.484,0.658-1.653,1.583
			c-0.027,0.168-0.056,0.364-0.056,0.575v3.614h-1.219V271.044z"/>
		<path d="M329.849,283.824c0.014,0.42-0.294,0.756-0.785,0.756c-0.434,0-0.742-0.336-0.742-0.756c0-0.435,0.322-0.771,0.77-0.771
			C329.555,283.054,329.849,283.39,329.849,283.824z M328.476,292.509v-6.779h1.233v6.779H328.476z"/>
		<path d="M331.752,287.564c0-0.701-0.014-1.275-0.056-1.835h1.093l0.069,1.12h0.028c0.336-0.645,1.12-1.274,2.241-1.274
			c0.938,0,2.396,0.561,2.396,2.886v4.048h-1.233v-3.908c0-1.093-0.406-2.003-1.568-2.003c-0.813,0-1.442,0.574-1.653,1.261
			c-0.056,0.154-0.084,0.364-0.084,0.574v4.076h-1.232V287.564z"/>
		<path d="M339.354,291.248c0.364,0.238,1.009,0.49,1.625,0.49c0.896,0,1.316-0.448,1.316-1.009c0-0.588-0.35-0.91-1.261-1.246
			c-1.219-0.435-1.793-1.106-1.793-1.919c0-1.093,0.883-1.989,2.34-1.989c0.686,0,1.288,0.196,1.667,0.42l-0.309,0.896
			c-0.267-0.168-0.757-0.392-1.387-0.392c-0.729,0-1.135,0.42-1.135,0.924c0,0.561,0.406,0.813,1.289,1.148
			c1.177,0.448,1.778,1.037,1.778,2.046c0,1.19-0.924,2.03-2.535,2.03c-0.742,0-1.429-0.182-1.905-0.462L339.354,291.248z"/>
		<path d="M346.551,283.782v1.947h1.765v0.938h-1.765v3.655c0,0.841,0.237,1.317,0.924,1.317c0.322,0,0.561-0.042,0.715-0.084
			l0.056,0.924c-0.238,0.099-0.616,0.168-1.093,0.168c-0.574,0-1.036-0.182-1.33-0.518c-0.351-0.364-0.477-0.967-0.477-1.766v-3.697
			h-1.051v-0.938h1.051v-1.625L346.551,283.782z"/>
		<path d="M353.454,292.509l-0.098-0.854h-0.042c-0.378,0.532-1.106,1.009-2.073,1.009c-1.373,0-2.073-0.967-2.073-1.947
			c0-1.639,1.457-2.535,4.076-2.521v-0.14c0-0.561-0.154-1.569-1.541-1.569c-0.63,0-1.288,0.196-1.765,0.505l-0.28-0.813
			c0.561-0.364,1.373-0.603,2.228-0.603c2.073,0,2.577,1.415,2.577,2.773v2.535c0,0.589,0.028,1.163,0.112,1.625H353.454z
			 M353.272,289.049c-1.345-0.028-2.872,0.21-2.872,1.527c0,0.798,0.532,1.176,1.163,1.176c0.882,0,1.442-0.56,1.639-1.134
			c0.042-0.127,0.07-0.267,0.07-0.393V289.049z"/>
		<path d="M356.447,287.564c0-0.701-0.014-1.275-0.056-1.835h1.093l0.069,1.12h0.028c0.336-0.645,1.12-1.274,2.241-1.274
			c0.938,0,2.396,0.561,2.396,2.886v4.048h-1.233v-3.908c0-1.093-0.406-2.003-1.568-2.003c-0.813,0-1.442,0.574-1.653,1.261
			c-0.056,0.154-0.084,0.364-0.084,0.574v4.076h-1.232V287.564z"/>
		<path d="M369.051,292.257c-0.322,0.168-1.037,0.392-1.947,0.392c-2.045,0-3.376-1.387-3.376-3.459
			c0-2.088,1.429-3.601,3.642-3.601c0.729,0,1.373,0.183,1.709,0.351l-0.28,0.952c-0.294-0.168-0.756-0.322-1.429-0.322
			c-1.555,0-2.395,1.148-2.395,2.563c0,1.569,1.008,2.535,2.353,2.535c0.701,0,1.163-0.182,1.514-0.336L369.051,292.257z"/>
		<path d="M371.092,289.343c0.028,1.667,1.093,2.354,2.325,2.354c0.883,0,1.415-0.154,1.877-0.351l0.21,0.883
			c-0.434,0.196-1.177,0.42-2.255,0.42c-2.087,0-3.334-1.372-3.334-3.417c0-2.046,1.205-3.656,3.18-3.656
			c2.213,0,2.802,1.947,2.802,3.193c0,0.252-0.028,0.448-0.042,0.574H371.092z M374.706,288.461
			c0.014-0.785-0.322-2.003-1.709-2.003c-1.247,0-1.793,1.148-1.892,2.003H374.706z"/>
		<path d="M380.29,291.094c0.35,0.225,1.162,0.574,2.017,0.574c1.583,0,2.073-1.008,2.06-1.765
			c-0.015-1.274-1.163-1.821-2.354-1.821h-0.687v-0.924h0.687c0.896,0,2.031-0.463,2.031-1.541c0-0.729-0.463-1.373-1.597-1.373
			c-0.729,0-1.429,0.322-1.821,0.603l-0.322-0.896c0.477-0.351,1.4-0.7,2.381-0.7c1.793,0,2.605,1.064,2.605,2.171
			c0,0.938-0.56,1.737-1.681,2.144v0.027c1.121,0.225,2.031,1.064,2.031,2.34c0,1.456-1.135,2.731-3.319,2.731
			c-1.023,0-1.92-0.322-2.368-0.616L380.29,291.094z"/>
	</g>
	<g>
		<path d="M453.02,274.448c0.363,0.238,1.008,0.49,1.625,0.49c0.896,0,1.316-0.448,1.316-1.008c0-0.588-0.35-0.911-1.262-1.247
			c-1.219-0.434-1.793-1.106-1.793-1.919c0-1.092,0.883-1.989,2.34-1.989c0.686,0,1.289,0.196,1.668,0.42l-0.309,0.896
			c-0.268-0.168-0.758-0.392-1.387-0.392c-0.729,0-1.135,0.42-1.135,0.924c0,0.561,0.406,0.813,1.289,1.149
			c1.176,0.448,1.777,1.037,1.777,2.045c0,1.191-0.924,2.031-2.535,2.031c-0.742,0-1.428-0.182-1.904-0.462L453.02,274.448z"/>
		<path d="M459.418,272.543c0.027,1.667,1.092,2.353,2.324,2.353c0.883,0,1.416-0.154,1.877-0.35l0.211,0.882
			c-0.434,0.196-1.178,0.42-2.256,0.42c-2.086,0-3.334-1.373-3.334-3.418s1.205-3.656,3.18-3.656c2.213,0,2.803,1.947,2.803,3.193
			c0,0.252-0.029,0.448-0.043,0.575H459.418z M463.031,271.661c0.014-0.784-0.322-2.003-1.709-2.003
			c-1.246,0-1.793,1.148-1.891,2.003H463.031z"/>
		<path d="M465.744,271.044c0-0.798-0.014-1.485-0.055-2.115h1.078l0.041,1.331h0.057c0.309-0.911,1.051-1.485,1.877-1.485
			c0.141,0,0.238,0.014,0.35,0.042v1.163c-0.125-0.028-0.252-0.042-0.42-0.042c-0.867,0-1.484,0.658-1.652,1.583
			c-0.027,0.168-0.057,0.364-0.057,0.575v3.614h-1.219V271.044z"/>
		<path d="M471.148,268.929l1.33,3.81c0.225,0.617,0.406,1.177,0.547,1.737h0.043c0.154-0.56,0.35-1.12,0.574-1.737l1.316-3.81
			h1.289l-2.662,6.78h-1.176l-2.578-6.78H471.148z"/>
		<path d="M477.953,272.543c0.027,1.667,1.092,2.353,2.324,2.353c0.883,0,1.416-0.154,1.877-0.35l0.211,0.882
			c-0.434,0.196-1.178,0.42-2.256,0.42c-2.086,0-3.334-1.373-3.334-3.418s1.205-3.656,3.18-3.656c2.213,0,2.803,1.947,2.803,3.193
			c0,0.252-0.029,0.448-0.043,0.575H477.953z M481.566,271.661c0.014-0.784-0.322-2.003-1.709-2.003
			c-1.246,0-1.793,1.148-1.891,2.003H481.566z"/>
		<path d="M484.281,271.044c0-0.798-0.014-1.485-0.057-2.115h1.078l0.043,1.331h0.057c0.307-0.911,1.049-1.485,1.877-1.485
			c0.139,0,0.238,0.014,0.35,0.042v1.163c-0.127-0.028-0.252-0.042-0.42-0.042c-0.869,0-1.484,0.658-1.654,1.583
			c-0.027,0.168-0.055,0.364-0.055,0.575v3.614h-1.219V271.044z"/>
		<path d="M442.85,283.825c0.014,0.42-0.295,0.756-0.785,0.756c-0.434,0-0.742-0.336-0.742-0.756c0-0.435,0.322-0.771,0.77-0.771
			C442.555,283.054,442.85,283.39,442.85,283.825z M441.477,292.509v-6.779h1.232v6.779H441.477z"/>
		<path d="M444.752,287.565c0-0.701-0.014-1.275-0.055-1.835h1.092l0.07,1.12h0.027c0.336-0.645,1.121-1.274,2.242-1.274
			c0.938,0,2.395,0.561,2.395,2.886v4.048h-1.232v-3.908c0-1.093-0.406-2.003-1.568-2.003c-0.813,0-1.443,0.574-1.654,1.261
			c-0.055,0.154-0.084,0.364-0.084,0.574v4.076h-1.232V287.565z"/>
		<path d="M452.354,291.249c0.365,0.238,1.01,0.49,1.625,0.49c0.896,0,1.316-0.448,1.316-1.009c0-0.588-0.35-0.91-1.26-1.246
			c-1.219-0.435-1.793-1.106-1.793-1.919c0-1.093,0.883-1.989,2.34-1.989c0.686,0,1.287,0.196,1.666,0.42l-0.309,0.896
			c-0.266-0.168-0.756-0.392-1.387-0.392c-0.729,0-1.135,0.42-1.135,0.924c0,0.561,0.406,0.813,1.289,1.148
			c1.178,0.448,1.779,1.037,1.779,2.046c0,1.19-0.924,2.03-2.535,2.03c-0.742,0-1.43-0.182-1.906-0.462L452.354,291.249z"/>
		<path d="M459.551,283.783v1.947h1.766v0.938h-1.766v3.655c0,0.841,0.238,1.317,0.924,1.317c0.322,0,0.561-0.042,0.715-0.084
			l0.057,0.924c-0.238,0.099-0.617,0.168-1.094,0.168c-0.574,0-1.035-0.182-1.33-0.518c-0.35-0.364-0.477-0.967-0.477-1.766v-3.697
			h-1.051v-0.938h1.051v-1.625L459.551,283.783z"/>
		<path d="M466.453,292.509l-0.098-0.854h-0.041c-0.379,0.532-1.107,1.009-2.074,1.009c-1.373,0-2.072-0.967-2.072-1.947
			c0-1.639,1.457-2.535,4.076-2.521v-0.14c0-0.561-0.154-1.569-1.541-1.569c-0.631,0-1.289,0.196-1.766,0.505l-0.279-0.813
			c0.561-0.364,1.373-0.603,2.227-0.603c2.074,0,2.578,1.415,2.578,2.773v2.535c0,0.589,0.027,1.163,0.111,1.625H466.453z
			 M466.271,289.049c-1.344-0.028-2.871,0.21-2.871,1.527c0,0.798,0.531,1.176,1.162,1.176c0.883,0,1.443-0.56,1.639-1.134
			c0.043-0.126,0.07-0.267,0.07-0.393V289.049z"/>
		<path d="M469.447,287.565c0-0.701-0.014-1.275-0.055-1.835h1.092l0.07,1.12h0.027c0.336-0.645,1.121-1.274,2.242-1.274
			c0.938,0,2.395,0.561,2.395,2.886v4.048h-1.232v-3.908c0-1.093-0.406-2.003-1.568-2.003c-0.813,0-1.443,0.574-1.654,1.261
			c-0.055,0.154-0.084,0.364-0.084,0.574v4.076h-1.232V287.565z"/>
		<path d="M482.051,292.257c-0.322,0.168-1.037,0.392-1.947,0.392c-2.045,0-3.377-1.387-3.377-3.459c0-2.088,1.43-3.601,3.643-3.601
			c0.729,0,1.373,0.183,1.709,0.351l-0.279,0.952c-0.295-0.168-0.758-0.322-1.43-0.322c-1.555,0-2.395,1.148-2.395,2.563
			c0,1.569,1.008,2.535,2.352,2.535c0.701,0,1.164-0.182,1.514-0.336L482.051,292.257z"/>
		<path d="M484.092,289.343c0.029,1.667,1.094,2.354,2.326,2.354c0.883,0,1.414-0.154,1.877-0.351l0.209,0.883
			c-0.434,0.196-1.176,0.42-2.254,0.42c-2.088,0-3.334-1.372-3.334-3.417c0-2.046,1.205-3.656,3.18-3.656
			c2.213,0,2.801,1.947,2.801,3.193c0,0.252-0.027,0.448-0.041,0.574H484.092z M487.707,288.461
			c0.014-0.785-0.322-2.004-1.709-2.004c-1.248,0-1.793,1.149-1.893,2.004H487.707z"/>
		<path d="M496.805,292.509v-2.479h-4.23v-0.813l4.063-5.813h1.332v5.658h1.273v0.967h-1.273v2.479H496.805z M496.805,289.063
			v-3.039c0-0.477,0.014-0.953,0.043-1.429h-0.043c-0.279,0.532-0.504,0.924-0.756,1.345l-2.227,3.096v0.027H496.805z"/>
	</g>
	<rect x="40" y="400" style="&st1;" width="150" height="50"/>
	<rect x="410" y="400" style="&st1;" width="150" height="50"/>
	<rect x="225" y="400" style="&st1;" width="150" height="50"/>
	<g>
		<path d="M63.167,424.445c0-0.799-0.014-1.486-0.056-2.115h1.079l0.042,1.33h0.056c0.308-0.91,1.051-1.484,1.877-1.484
			c0.14,0,0.238,0.014,0.351,0.041v1.162c-0.126-0.027-0.252-0.041-0.42-0.041c-0.869,0-1.485,0.658-1.653,1.582
			c-0.028,0.168-0.056,0.365-0.056,0.574v3.615h-1.219V424.445z"/>
		<path d="M68.291,425.943c0.028,1.666,1.093,2.354,2.325,2.354c0.882,0,1.415-0.154,1.877-0.352l0.21,0.883
			c-0.434,0.197-1.176,0.42-2.255,0.42c-2.087,0-3.334-1.371-3.334-3.416c0-2.047,1.205-3.656,3.18-3.656
			c2.213,0,2.802,1.947,2.802,3.193c0,0.252-0.028,0.447-0.042,0.574H68.291z M71.905,425.061c0.014-0.785-0.322-2.002-1.709-2.002
			c-1.247,0-1.793,1.148-1.891,2.002H71.905z"/>
		<path d="M80.474,419.164v8.193c0,0.604,0.014,1.289,0.056,1.752h-1.106l-0.056-1.178h-0.028c-0.378,0.758-1.205,1.332-2.312,1.332
			c-1.639,0-2.899-1.387-2.899-3.447c-0.014-2.254,1.387-3.641,3.04-3.641c1.037,0,1.737,0.49,2.045,1.035h0.028v-4.047H80.474z
			 M79.241,425.088c0-0.152-0.014-0.363-0.056-0.518c-0.182-0.785-0.854-1.428-1.779-1.428c-1.275,0-2.031,1.119-2.031,2.619
			c0,1.373,0.672,2.506,2.003,2.506c0.826,0,1.583-0.545,1.807-1.471c0.042-0.168,0.056-0.336,0.056-0.531V425.088z"/>
		<path d="M83.887,420.424c0.014,0.42-0.294,0.756-0.785,0.756c-0.434,0-0.742-0.336-0.742-0.756c0-0.434,0.322-0.77,0.77-0.77
			C83.593,419.654,83.887,419.99,83.887,420.424z M82.514,429.109v-6.779h1.233v6.779H82.514z"/>
		<path d="M85.622,427.848c0.364,0.238,1.008,0.49,1.625,0.49c0.896,0,1.316-0.447,1.316-1.008c0-0.588-0.35-0.91-1.261-1.246
			c-1.218-0.436-1.793-1.107-1.793-1.92c0-1.092,0.883-1.988,2.339-1.988c0.687,0,1.289,0.195,1.667,0.42l-0.308,0.896
			c-0.266-0.168-0.756-0.393-1.387-0.393c-0.729,0-1.135,0.42-1.135,0.924c0,0.561,0.406,0.813,1.289,1.148
			c1.177,0.449,1.779,1.037,1.779,2.047c0,1.189-0.925,2.029-2.536,2.029c-0.742,0-1.429-0.182-1.905-0.461L85.622,427.848z"/>
		<path d="M94.134,427.848c0.364,0.238,1.008,0.49,1.625,0.49c0.896,0,1.316-0.447,1.316-1.008c0-0.588-0.35-0.91-1.261-1.246
			c-1.218-0.436-1.793-1.107-1.793-1.92c0-1.092,0.883-1.988,2.339-1.988c0.687,0,1.289,0.195,1.667,0.42l-0.308,0.896
			c-0.266-0.168-0.756-0.393-1.387-0.393c-0.729,0-1.135,0.42-1.135,0.924c0,0.561,0.406,0.813,1.289,1.148
			c1.177,0.449,1.779,1.037,1.779,2.047c0,1.189-0.925,2.029-2.536,2.029c-0.742,0-1.429-0.182-1.905-0.461L94.134,427.848z"/>
		<path d="M100.533,425.943c0.028,1.666,1.092,2.354,2.325,2.354c0.882,0,1.415-0.154,1.877-0.352l0.21,0.883
			c-0.434,0.197-1.176,0.42-2.255,0.42c-2.087,0-3.334-1.371-3.334-3.416c0-2.047,1.205-3.656,3.18-3.656
			c2.213,0,2.802,1.947,2.802,3.193c0,0.252-0.028,0.447-0.042,0.574H100.533z M104.146,425.061
			c0.014-0.785-0.322-2.002-1.709-2.002c-1.247,0-1.793,1.148-1.891,2.002H104.146z"/>
		<path d="M106.692,427.848c0.364,0.238,1.008,0.49,1.625,0.49c0.896,0,1.316-0.447,1.316-1.008c0-0.588-0.35-0.91-1.261-1.246
			c-1.218-0.436-1.793-1.107-1.793-1.92c0-1.092,0.883-1.988,2.339-1.988c0.687,0,1.289,0.195,1.667,0.42l-0.308,0.896
			c-0.266-0.168-0.756-0.393-1.387-0.393c-0.729,0-1.135,0.42-1.135,0.924c0,0.561,0.406,0.813,1.289,1.148
			c1.177,0.449,1.779,1.037,1.779,2.047c0,1.189-0.925,2.029-2.536,2.029c-0.742,0-1.429-0.182-1.905-0.461L106.692,427.848z"/>
		<path d="M112.236,427.848c0.364,0.238,1.008,0.49,1.625,0.49c0.896,0,1.316-0.447,1.316-1.008c0-0.588-0.35-0.91-1.261-1.246
			c-1.218-0.436-1.793-1.107-1.793-1.92c0-1.092,0.883-1.988,2.339-1.988c0.687,0,1.289,0.195,1.667,0.42l-0.308,0.896
			c-0.266-0.168-0.756-0.393-1.387-0.393c-0.729,0-1.135,0.42-1.135,0.924c0,0.561,0.406,0.813,1.289,1.148
			c1.177,0.449,1.779,1.037,1.779,2.047c0,1.189-0.925,2.029-2.536,2.029c-0.742,0-1.429-0.182-1.905-0.461L112.236,427.848z"/>
		<path d="M119.321,420.424c0.014,0.42-0.294,0.756-0.785,0.756c-0.434,0-0.742-0.336-0.742-0.756c0-0.434,0.322-0.77,0.77-0.77
			C119.026,419.654,119.321,419.99,119.321,420.424z M117.948,429.109v-6.779h1.233v6.779H117.948z"/>
		<path d="M127.359,425.662c0,2.508-1.737,3.602-3.375,3.602c-1.835,0-3.25-1.346-3.25-3.488c0-2.27,1.485-3.6,3.362-3.6
			C126.042,422.176,127.359,423.59,127.359,425.662z M121.98,425.732c0,1.486,0.854,2.605,2.059,2.605
			c1.177,0,2.059-1.105,2.059-2.633c0-1.148-0.574-2.605-2.031-2.605C122.61,423.1,121.98,424.445,121.98,425.732z"/>
		<path d="M128.91,424.164c0-0.701-0.014-1.275-0.056-1.834h1.093l0.07,1.119h0.028c0.336-0.645,1.121-1.273,2.241-1.273
			c0.938,0,2.395,0.561,2.395,2.885v4.049h-1.232v-3.908c0-1.094-0.406-2.004-1.569-2.004c-0.813,0-1.443,0.574-1.653,1.262
			c-0.056,0.154-0.084,0.363-0.084,0.574v4.076h-1.233V424.164z"/>
		<path d="M139.479,427.848c0.364,0.238,1.008,0.49,1.625,0.49c0.896,0,1.316-0.447,1.316-1.008c0-0.588-0.35-0.91-1.261-1.246
			c-1.218-0.436-1.793-1.107-1.793-1.92c0-1.092,0.883-1.988,2.339-1.988c0.687,0,1.289,0.195,1.667,0.42l-0.308,0.896
			c-0.266-0.168-0.756-0.393-1.387-0.393c-0.729,0-1.135,0.42-1.135,0.924c0,0.561,0.406,0.813,1.289,1.148
			c1.177,0.449,1.779,1.037,1.779,2.047c0,1.189-0.925,2.029-2.536,2.029c-0.742,0-1.429-0.182-1.905-0.461L139.479,427.848z"/>
		<path d="M146.676,420.383v1.947h1.765v0.938h-1.765v3.656c0,0.84,0.238,1.316,0.924,1.316c0.322,0,0.561-0.041,0.715-0.084
			l0.056,0.924c-0.238,0.1-0.616,0.168-1.092,0.168c-0.575,0-1.037-0.182-1.331-0.518c-0.35-0.363-0.476-0.967-0.476-1.766v-3.697
			h-1.051v-0.938h1.051v-1.625L146.676,420.383z"/>
		<path d="M155.876,425.662c0,2.508-1.737,3.602-3.375,3.602c-1.835,0-3.25-1.346-3.25-3.488c0-2.27,1.485-3.6,3.362-3.6
			C154.56,422.176,155.876,423.59,155.876,425.662z M150.498,425.732c0,1.486,0.854,2.605,2.059,2.605
			c1.177,0,2.059-1.105,2.059-2.633c0-1.148-0.574-2.605-2.031-2.605C151.128,423.1,150.498,424.445,150.498,425.732z"/>
		<path d="M157.427,424.445c0-0.799-0.014-1.486-0.056-2.115h1.079l0.042,1.33h0.056c0.308-0.91,1.051-1.484,1.877-1.484
			c0.14,0,0.238,0.014,0.351,0.041v1.162c-0.126-0.027-0.252-0.041-0.42-0.041c-0.869,0-1.485,0.658-1.653,1.582
			c-0.028,0.168-0.056,0.365-0.056,0.574v3.615h-1.219V424.445z"/>
		<path d="M162.552,425.943c0.028,1.666,1.093,2.354,2.325,2.354c0.882,0,1.415-0.154,1.877-0.352l0.21,0.883
			c-0.434,0.197-1.176,0.42-2.255,0.42c-2.087,0-3.334-1.371-3.334-3.416c0-2.047,1.205-3.656,3.18-3.656
			c2.213,0,2.802,1.947,2.802,3.193c0,0.252-0.028,0.447-0.042,0.574H162.552z M166.166,425.061
			c0.014-0.785-0.322-2.002-1.709-2.002c-1.247,0-1.793,1.148-1.891,2.002H166.166z"/>
	</g>
	<g>
		<path d="M250.497,424.445c0-0.799-0.014-1.486-0.056-2.115h1.079l0.042,1.33h0.056c0.308-0.91,1.051-1.484,1.877-1.484
			c0.14,0,0.238,0.014,0.35,0.041v1.162c-0.126-0.027-0.252-0.041-0.42-0.041c-0.869,0-1.485,0.658-1.653,1.582
			c-0.028,0.168-0.056,0.365-0.056,0.574v3.615h-1.219V424.445z"/>
		<path d="M255.622,425.943c0.028,1.666,1.092,2.354,2.325,2.354c0.882,0,1.415-0.154,1.877-0.352l0.21,0.883
			c-0.434,0.197-1.176,0.42-2.255,0.42c-2.087,0-3.334-1.371-3.334-3.416c0-2.047,1.205-3.656,3.18-3.656
			c2.213,0,2.802,1.947,2.802,3.193c0,0.252-0.028,0.447-0.042,0.574H255.622z M259.235,425.061
			c0.014-0.785-0.322-2.002-1.709-2.002c-1.247,0-1.793,1.148-1.891,2.002H259.235z"/>
		<path d="M267.805,419.164v8.193c0,0.604,0.014,1.289,0.056,1.752h-1.106l-0.056-1.178h-0.028
			c-0.378,0.758-1.205,1.332-2.312,1.332c-1.639,0-2.899-1.387-2.899-3.447c-0.014-2.254,1.387-3.641,3.04-3.641
			c1.037,0,1.737,0.49,2.045,1.035h0.028v-4.047H267.805z M266.572,425.088c0-0.152-0.014-0.363-0.056-0.518
			c-0.182-0.785-0.854-1.428-1.779-1.428c-1.275,0-2.031,1.119-2.031,2.619c0,1.373,0.672,2.506,2.003,2.506
			c0.826,0,1.583-0.545,1.807-1.471c0.042-0.168,0.056-0.336,0.056-0.531V425.088z"/>
		<path d="M271.218,420.424c0.014,0.42-0.294,0.756-0.785,0.756c-0.434,0-0.742-0.336-0.742-0.756c0-0.434,0.322-0.77,0.77-0.77
			C270.923,419.654,271.218,419.99,271.218,420.424z M269.845,429.109v-6.779h1.233v6.779H269.845z"/>
		<path d="M272.953,427.848c0.364,0.238,1.008,0.49,1.625,0.49c0.896,0,1.316-0.447,1.316-1.008c0-0.588-0.35-0.91-1.261-1.246
			c-1.218-0.436-1.793-1.107-1.793-1.92c0-1.092,0.883-1.988,2.339-1.988c0.687,0,1.289,0.195,1.667,0.42l-0.308,0.896
			c-0.266-0.168-0.756-0.393-1.387-0.393c-0.729,0-1.135,0.42-1.135,0.924c0,0.561,0.406,0.813,1.289,1.148
			c1.177,0.449,1.779,1.037,1.779,2.047c0,1.189-0.925,2.029-2.536,2.029c-0.742,0-1.429-0.182-1.905-0.461L272.953,427.848z"/>
		<path d="M281.465,427.848c0.364,0.238,1.008,0.49,1.625,0.49c0.896,0,1.316-0.447,1.316-1.008c0-0.588-0.35-0.91-1.261-1.246
			c-1.218-0.436-1.793-1.107-1.793-1.92c0-1.092,0.883-1.988,2.339-1.988c0.687,0,1.289,0.195,1.667,0.42l-0.308,0.896
			c-0.266-0.168-0.756-0.393-1.387-0.393c-0.729,0-1.135,0.42-1.135,0.924c0,0.561,0.406,0.813,1.289,1.148
			c1.177,0.449,1.779,1.037,1.779,2.047c0,1.189-0.925,2.029-2.536,2.029c-0.742,0-1.429-0.182-1.905-0.461L281.465,427.848z"/>
		<path d="M293.312,425.662c0,2.508-1.737,3.602-3.375,3.602c-1.835,0-3.25-1.346-3.25-3.488c0-2.27,1.485-3.6,3.362-3.6
			C291.996,422.176,293.312,423.59,293.312,425.662z M287.933,425.732c0,1.486,0.854,2.605,2.059,2.605
			c1.177,0,2.059-1.105,2.059-2.633c0-1.148-0.574-2.605-2.031-2.605C288.563,423.1,287.933,424.445,287.933,425.732z"/>
		<path d="M299.695,428.857c-0.322,0.168-1.037,0.391-1.947,0.391c-2.045,0-3.376-1.387-3.376-3.459c0-2.088,1.429-3.6,3.642-3.6
			c0.729,0,1.373,0.182,1.709,0.35l-0.28,0.953c-0.294-0.168-0.756-0.322-1.429-0.322c-1.555,0-2.396,1.148-2.396,2.563
			c0,1.57,1.009,2.535,2.354,2.535c0.7,0,1.163-0.182,1.513-0.336L299.695,428.857z"/>
		<path d="M302.353,425.439h0.028c0.168-0.238,0.406-0.533,0.603-0.771l1.989-2.338h1.484l-2.619,2.787l2.983,3.992h-1.499
			l-2.339-3.25l-0.63,0.699v2.551h-1.219v-9.945h1.219V425.439z"/>
		<path d="M308.387,425.943c0.028,1.666,1.093,2.354,2.325,2.354c0.882,0,1.415-0.154,1.877-0.352l0.21,0.883
			c-0.434,0.197-1.176,0.42-2.255,0.42c-2.087,0-3.334-1.371-3.334-3.416c0-2.047,1.205-3.656,3.18-3.656
			c2.213,0,2.802,1.947,2.802,3.193c0,0.252-0.028,0.447-0.042,0.574H308.387z M312,425.061c0.014-0.785-0.322-2.002-1.709-2.002
			c-1.247,0-1.793,1.148-1.891,2.002H312z"/>
		<path d="M316.199,420.383v1.947h1.765v0.938h-1.765v3.656c0,0.84,0.238,1.316,0.924,1.316c0.322,0,0.561-0.041,0.714-0.084
			l0.056,0.924c-0.238,0.1-0.616,0.168-1.092,0.168c-0.575,0-1.037-0.182-1.331-0.518c-0.35-0.363-0.476-0.967-0.476-1.766v-3.697
			h-1.051v-0.938h1.051v-1.625L316.199,420.383z"/>
		<path d="M322.148,427.848c0.364,0.238,1.008,0.49,1.625,0.49c0.896,0,1.316-0.447,1.316-1.008c0-0.588-0.35-0.91-1.261-1.246
			c-1.218-0.436-1.793-1.107-1.793-1.92c0-1.092,0.883-1.988,2.339-1.988c0.687,0,1.289,0.195,1.667,0.42l-0.308,0.896
			c-0.266-0.168-0.756-0.393-1.387-0.393c-0.729,0-1.135,0.42-1.135,0.924c0,0.561,0.406,0.813,1.289,1.148
			c1.177,0.449,1.779,1.037,1.779,2.047c0,1.189-0.925,2.029-2.536,2.029c-0.742,0-1.429-0.182-1.905-0.461L322.148,427.848z"/>
		<path d="M329.345,420.383v1.947h1.765v0.938h-1.765v3.656c0,0.84,0.238,1.316,0.924,1.316c0.322,0,0.561-0.041,0.714-0.084
			l0.056,0.924c-0.238,0.1-0.616,0.168-1.092,0.168c-0.575,0-1.037-0.182-1.331-0.518c-0.35-0.363-0.476-0.967-0.476-1.766v-3.697
			h-1.051v-0.938h1.051v-1.625L329.345,420.383z"/>
		<path d="M338.545,425.662c0,2.508-1.737,3.602-3.375,3.602c-1.835,0-3.25-1.346-3.25-3.488c0-2.27,1.485-3.6,3.362-3.6
			C337.229,422.176,338.545,423.59,338.545,425.662z M333.167,425.732c0,1.486,0.854,2.605,2.059,2.605
			c1.177,0,2.059-1.105,2.059-2.633c0-1.148-0.574-2.605-2.031-2.605C333.797,423.1,333.167,424.445,333.167,425.732z"/>
		<path d="M340.096,424.445c0-0.799-0.014-1.486-0.056-2.115h1.079l0.042,1.33h0.056c0.308-0.91,1.051-1.484,1.877-1.484
			c0.14,0,0.238,0.014,0.35,0.041v1.162c-0.126-0.027-0.252-0.041-0.42-0.041c-0.869,0-1.485,0.658-1.653,1.582
			c-0.028,0.168-0.056,0.365-0.056,0.574v3.615h-1.219V424.445z"/>
		<path d="M345.221,425.943c0.028,1.666,1.093,2.354,2.325,2.354c0.882,0,1.415-0.154,1.877-0.352l0.21,0.883
			c-0.434,0.197-1.176,0.42-2.255,0.42c-2.087,0-3.334-1.371-3.334-3.416c0-2.047,1.205-3.656,3.18-3.656
			c2.213,0,2.802,1.947,2.802,3.193c0,0.252-0.028,0.447-0.042,0.574H345.221z M348.834,425.061
			c0.014-0.785-0.322-2.002-1.709-2.002c-1.247,0-1.793,1.148-1.891,2.002H348.834z"/>
	</g>
	<g>
		<path d="M434.776,424.445c0-0.799-0.014-1.486-0.056-2.115h1.078l0.042,1.33h0.057c0.308-0.91,1.05-1.484,1.877-1.484
			c0.14,0,0.237,0.014,0.35,0.041v1.162c-0.126-0.027-0.252-0.041-0.42-0.041c-0.868,0-1.485,0.658-1.653,1.582
			c-0.027,0.168-0.056,0.365-0.056,0.574v3.615h-1.219V424.445z"/>
		<path d="M443.038,429.109l-0.098-0.855h-0.042c-0.379,0.533-1.106,1.01-2.073,1.01c-1.373,0-2.073-0.967-2.073-1.947
			c0-1.639,1.457-2.535,4.076-2.521v-0.141c0-0.561-0.154-1.568-1.541-1.568c-0.63,0-1.288,0.195-1.765,0.504l-0.28-0.813
			c0.561-0.363,1.373-0.602,2.228-0.602c2.073,0,2.577,1.414,2.577,2.773v2.535c0,0.588,0.028,1.162,0.112,1.625H443.038z
			 M442.856,425.648c-1.345-0.027-2.872,0.211-2.872,1.527c0,0.799,0.532,1.176,1.163,1.176c0.882,0,1.442-0.559,1.639-1.133
			c0.042-0.127,0.07-0.268,0.07-0.393V425.648z"/>
		<path d="M445.977,429.109c0.027-0.463,0.056-1.148,0.056-1.752v-8.193h1.219v4.258h0.028c0.434-0.756,1.219-1.246,2.311-1.246
			c1.682,0,2.872,1.4,2.858,3.459c0,2.424-1.527,3.629-3.04,3.629c-0.98,0-1.765-0.379-2.27-1.275h-0.042l-0.056,1.121H445.977z
			 M447.251,426.391c0,0.154,0.028,0.309,0.056,0.449c0.238,0.854,0.953,1.443,1.85,1.443c1.288,0,2.059-1.051,2.059-2.605
			c0-1.359-0.7-2.521-2.017-2.521c-0.841,0-1.625,0.574-1.877,1.512c-0.028,0.141-0.07,0.309-0.07,0.504V426.391z"/>
		<path d="M453.942,429.109c0.027-0.463,0.056-1.148,0.056-1.752v-8.193h1.219v4.258h0.028c0.434-0.756,1.219-1.246,2.311-1.246
			c1.682,0,2.872,1.4,2.858,3.459c0,2.424-1.527,3.629-3.04,3.629c-0.98,0-1.765-0.379-2.27-1.275h-0.042l-0.056,1.121H453.942z
			 M455.217,426.391c0,0.154,0.028,0.309,0.056,0.449c0.238,0.854,0.953,1.443,1.85,1.443c1.288,0,2.059-1.051,2.059-2.605
			c0-1.359-0.7-2.521-2.017-2.521c-0.841,0-1.625,0.574-1.877,1.512c-0.028,0.141-0.07,0.309-0.07,0.504V426.391z"/>
		<path d="M463.337,420.424c0.014,0.42-0.294,0.756-0.784,0.756c-0.435,0-0.743-0.336-0.743-0.756c0-0.434,0.322-0.77,0.771-0.77
			C463.043,419.654,463.337,419.99,463.337,420.424z M461.964,429.109v-6.779h1.232v6.779H461.964z"/>
		<path d="M466.726,420.383v1.947h1.765v0.938h-1.765v3.656c0,0.84,0.237,1.316,0.924,1.316c0.322,0,0.561-0.041,0.715-0.084
			l0.056,0.924c-0.238,0.1-0.616,0.168-1.093,0.168c-0.574,0-1.036-0.182-1.33-0.518c-0.351-0.363-0.477-0.967-0.477-1.766v-3.697
			h-1.051v-0.938h1.051v-1.625L466.726,420.383z"/>
		<path d="M469.874,424.164c0-0.701-0.014-1.275-0.056-1.834h1.078l0.057,1.092h0.042c0.378-0.645,1.008-1.246,2.129-1.246
			c0.925,0,1.625,0.561,1.919,1.357h0.028c0.21-0.377,0.476-0.672,0.756-0.881c0.406-0.309,0.854-0.477,1.499-0.477
			c0.896,0,2.228,0.588,2.228,2.941v3.992h-1.205v-3.838c0-1.303-0.477-2.088-1.471-2.088c-0.7,0-1.247,0.518-1.457,1.121
			c-0.056,0.168-0.098,0.393-0.098,0.615v4.189h-1.205v-4.063c0-1.078-0.476-1.863-1.414-1.863c-0.771,0-1.331,0.617-1.527,1.232
			c-0.07,0.182-0.098,0.393-0.098,0.604v4.09h-1.205V424.164z"/>
		<path d="M486.173,428.059h-0.028c-0.364,0.672-1.121,1.205-2.213,1.205c-1.583,0-2.872-1.373-2.872-3.432
			c0-2.537,1.639-3.656,3.067-3.656c1.051,0,1.751,0.518,2.088,1.176h0.027l0.042-1.021h1.163c-0.028,0.574-0.042,1.162-0.042,1.861
			v7.691h-1.232V428.059z M486.173,425.074c0-0.168-0.015-0.363-0.057-0.518c-0.182-0.756-0.84-1.4-1.765-1.4
			c-1.274,0-2.045,1.078-2.045,2.605c0,1.344,0.644,2.521,2.003,2.521c0.798,0,1.484-0.49,1.765-1.346
			c0.057-0.168,0.099-0.406,0.099-0.588V425.074z"/>
		<path d="M492.399,424.543c0-0.869-0.028-1.57-0.056-2.213h1.106l0.056,1.162h0.028c0.504-0.826,1.303-1.316,2.409-1.316
			c1.639,0,2.872,1.387,2.872,3.445c0,2.438-1.485,3.643-3.082,3.643c-0.896,0-1.681-0.393-2.087-1.064h-0.028v3.684h-1.219V424.543
			z M493.618,426.35c0,0.182,0.028,0.35,0.056,0.504c0.225,0.855,0.967,1.443,1.85,1.443c1.303,0,2.059-1.064,2.059-2.619
			c0-1.359-0.714-2.521-2.017-2.521c-0.841,0-1.625,0.602-1.863,1.525c-0.042,0.154-0.084,0.338-0.084,0.506V426.35z"/>
		<path d="M506.038,427.26c0,0.701,0.015,1.316,0.057,1.85h-1.093l-0.07-1.107h-0.028c-0.321,0.547-1.036,1.262-2.241,1.262
			c-1.064,0-2.339-0.59-2.339-2.971v-3.963h1.232v3.754c0,1.287,0.393,2.156,1.513,2.156c0.827,0,1.401-0.574,1.625-1.121
			c0.07-0.182,0.112-0.406,0.112-0.629v-4.16h1.232V427.26z"/>
		<path d="M508.023,429.109c0.027-0.463,0.056-1.148,0.056-1.752v-8.193h1.219v4.258h0.028c0.434-0.756,1.219-1.246,2.311-1.246
			c1.682,0,2.872,1.4,2.858,3.459c0,2.424-1.527,3.629-3.04,3.629c-0.98,0-1.765-0.379-2.27-1.275h-0.042l-0.056,1.121H508.023z
			 M509.298,426.391c0,0.154,0.028,0.309,0.056,0.449c0.238,0.854,0.953,1.443,1.85,1.443c1.288,0,2.059-1.051,2.059-2.605
			c0-1.359-0.7-2.521-2.017-2.521c-0.841,0-1.625,0.574-1.877,1.512c-0.028,0.141-0.07,0.309-0.07,0.504V426.391z"/>
		<path d="M515.877,427.848c0.364,0.238,1.009,0.49,1.625,0.49c0.896,0,1.316-0.447,1.316-1.008c0-0.588-0.35-0.91-1.261-1.246
			c-1.219-0.436-1.793-1.107-1.793-1.92c0-1.092,0.883-1.988,2.34-1.988c0.686,0,1.288,0.195,1.667,0.42l-0.309,0.896
			c-0.267-0.168-0.757-0.393-1.387-0.393c-0.729,0-1.135,0.42-1.135,0.924c0,0.561,0.406,0.813,1.289,1.148
			c1.177,0.449,1.778,1.037,1.778,2.047c0,1.189-0.924,2.029-2.535,2.029c-0.742,0-1.429-0.182-1.905-0.461L515.877,427.848z"/>
		<path d="M527.262,427.26c0,0.701,0.015,1.316,0.057,1.85h-1.093l-0.07-1.107h-0.028c-0.321,0.547-1.036,1.262-2.241,1.262
			c-1.064,0-2.339-0.59-2.339-2.971v-3.963h1.232v3.754c0,1.287,0.393,2.156,1.513,2.156c0.827,0,1.401-0.574,1.625-1.121
			c0.07-0.182,0.112-0.406,0.112-0.629v-4.16h1.232V427.26z"/>
		<path d="M529.247,429.109c0.027-0.463,0.056-1.148,0.056-1.752v-8.193h1.219v4.258h0.028c0.434-0.756,1.219-1.246,2.311-1.246
			c1.682,0,2.872,1.4,2.858,3.459c0,2.424-1.527,3.629-3.04,3.629c-0.98,0-1.765-0.379-2.27-1.275h-0.042l-0.056,1.121H529.247z
			 M530.521,426.391c0,0.154,0.028,0.309,0.056,0.449c0.238,0.854,0.953,1.443,1.85,1.443c1.288,0,2.059-1.051,2.059-2.605
			c0-1.359-0.7-2.521-2.017-2.521c-0.841,0-1.625,0.574-1.877,1.512c-0.028,0.141-0.07,0.309-0.07,0.504V426.391z"/>
	</g>
	<g>
		<g>
			<line style="&st2;" x1="298.508" y1="180.439" x2="130.992" y2="254.561"/>
			<g>
				<polygon points="293.823,178.04 293.496,178.985 298.157,180.593 296.212,185.125 297.133,185.519 299.5,179.999 				"/>
			</g>
			<g>
				<polygon points="132.367,249.48 133.287,249.874 131.342,254.405 136.004,256.014 135.676,256.959 130,254.999 				"/>
			</g>
		</g>
	</g>
	<g>
		<g>
			<line style="&st2;" x1="298.848" y1="180.866" x2="243.652" y2="254.134"/>
			<g>
				<polygon points="293.587,181.052 293.762,182.038 298.616,181.172 299.124,186.077 300.12,185.973 299.499,180 				"/>
			</g>
			<g>
				<polygon points="242.379,249.026 243.375,248.922 243.882,253.827 248.737,252.962 248.912,253.948 242.999,255 				"/>
			</g>
		</g>
	</g>
	<g>
		<g>
			<line style="&st2;" x1="300.16" y1="180.861" x2="356.34" y2="254.139"/>
			<g>
				<polygon points="298.93,185.979 299.926,186.074 300.393,181.166 305.254,181.989 305.421,181.002 299.499,180 				"/>
			</g>
			<g>
				<polygon points="351.079,253.998 351.245,253.011 356.106,253.835 356.573,248.926 357.569,249.022 356.999,255 				"/>
			</g>
		</g>
	</g>
	<g>
		<g>
			<line style="&st2;" x1="300.493" y1="180.437" x2="469.008" y2="254.563"/>
			<g>
				<polygon points="301.879,185.515 302.798,185.119 300.844,180.592 305.501,178.973 305.172,178.028 299.5,180.001 				"/>
			</g>
			<g>
				<polygon points="464.327,256.973 463.998,256.028 468.655,254.41 466.701,249.882 467.621,249.486 470,255.001 				"/>
			</g>
		</g>
	</g>
	<g>
		<g>
			<line style="&st2;" x1="129.831" y1="306.071" x2="115.169" y2="398.929"/>
			<g>
				<polygon points="125.274,308.706 125.892,309.494 129.77,306.45 132.523,310.542 133.353,309.982 129.999,305 				"/>
			</g>
			<g>
				<polygon points="111.646,395.018 112.476,394.458 115.228,398.55 119.108,395.505 119.725,396.293 114.999,400 				"/>
			</g>
		</g>
	</g>
	<g>
		<g>
			<line style="&st2;" x1="238.079" y1="305.66" x2="115.861" y2="399.34"/>
			<g>
				<polygon points="232.961,304.43 232.866,305.426 237.774,305.893 236.95,310.754 237.937,310.921 238.939,304.999 				"/>
			</g>
			<g>
				<polygon points="116.002,394.079 116.989,394.245 116.165,399.106 121.074,399.573 120.978,400.57 115,399.999 				"/>
			</g>
		</g>
	</g>
	<g>
		<g>
			<line style="&st2;" x1="355.991" y1="305.396" x2="116.009" y2="399.604"/>
			<g>
				<polygon points="351.412,302.8 351.044,303.731 355.633,305.536 353.498,309.98 354.4,310.413 357,304.999 				"/>
			</g>
			<g>
				<polygon points="117.599,394.586 118.502,395.019 116.366,399.462 120.955,401.268 120.588,402.199 115,399.999 				"/>
			</g>
		</g>
	</g>
	<g>
		<g>
			<line style="&st2;" x1="468.952" y1="305.28" x2="116.048" y2="399.72"/>
			<g>
				<polygon points="464.694,302.186 464.225,303.07 468.581,305.378 465.96,309.556 466.809,310.087 470,304.999 				"/>
			</g>
			<g>
				<polygon points="118.191,394.912 119.04,395.443 116.418,399.62 120.775,401.929 120.306,402.813 115,399.999 				"/>
			</g>
		</g>
	</g>
	<g>
		<g>
			<line style="&st2;" x1="130.947" y1="305.529" x2="299.053" y2="399.471"/>
			<g>
				<polygon points="131.844,310.716 132.797,310.409 131.281,305.717 136.072,304.548 135.834,303.576 130,305.001 				"/>
			</g>
			<g>
				<polygon points="294.166,401.425 293.928,400.453 298.718,399.285 297.203,394.592 298.155,394.285 300,400.001 				"/>
			</g>
		</g>
	</g>
	<g>
		<g>
			<line style="&st2;" x1="239.526" y1="305.912" x2="299.414" y2="399.088"/>
			<g>
				<polygon points="237.877,310.911 238.862,311.089 239.733,306.236 244.51,307.458 244.757,306.489 238.939,305 				"/>
			</g>
			<g>
				<polygon points="294.182,398.512 294.429,397.542 299.205,398.766 300.077,393.912 301.062,394.089 299.999,400 				"/>
			</g>
		</g>
	</g>
	<g>
		<g>
			<line style="&st2;" x1="356.442" y1="305.93" x2="300.558" y2="399.07"/>
			<g>
				<polygon points="351.23,306.667 351.507,307.629 356.244,306.258 357.265,311.083 358.244,310.875 356.999,305 				"/>
			</g>
			<g>
				<polygon points="298.756,394.125 299.735,393.917 300.754,398.74 305.492,397.371 305.769,398.333 299.999,400 				"/>
			</g>
		</g>
	</g>
	<g>
		<g>
			<line style="&st2;" x1="469.054" y1="305.529" x2="300.947" y2="399.471"/>
			<g>
				<polygon points="464.166,303.575 463.928,304.547 468.718,305.715 467.203,310.408 468.155,310.715 470,304.999 				"/>
			</g>
			<g>
				<polygon points="301.844,394.284 302.797,394.591 301.281,399.283 306.072,400.452 305.834,401.424 300,399.999 				"/>
			</g>
		</g>
	</g>
	<g>
		<g>
			<line style="&st2;" x1="131.048" y1="305.28" x2="483.952" y2="399.72"/>
			<g>
				<polygon points="133.191,310.088 134.04,309.557 131.418,305.38 135.775,303.071 135.306,302.187 130,305.001 				"/>
			</g>
			<g>
				<polygon points="479.694,402.813 479.225,401.93 483.581,399.622 480.96,395.444 481.809,394.913 485,400.001 				"/>
			</g>
		</g>
	</g>
	<g>
		<g>
			<line style="&st2;" x1="239.952" y1="305.391" x2="483.988" y2="399.609"/>
			<g>
				<polygon points="241.57,310.399 242.47,309.962 240.309,305.53 244.888,303.699 244.516,302.77 238.939,305.001 				"/>
			</g>
			<g>
				<polygon points="479.424,402.231 479.052,401.303 483.63,399.472 481.47,395.039 482.37,394.602 485,400.001 				"/>
			</g>
		</g>
	</g>
	<g>
		<g>
			<line style="&st2;" x1="357.871" y1="305.646" x2="484.129" y2="399.354"/>
			<g>
				<polygon points="358.094,310.905 359.078,310.724 358.178,305.876 363.08,305.333 362.968,304.338 357,305.001 				"/>
			</g>
			<g>
				<polygon points="479.031,400.663 478.92,399.668 483.82,399.126 482.921,394.277 483.905,394.096 484.999,400.001 				"/>
			</g>
		</g>
	</g>
	<g>
		<g>
			<line style="&st2;" x1="470.169" y1="306.071" x2="484.831" y2="398.929"/>
			<g>
				<polygon points="466.646,309.982 467.476,310.542 470.229,306.45 474.107,309.495 474.725,308.707 469.999,305 				"/>
			</g>
			<g>
				<polygon points="480.274,396.294 480.892,395.506 484.771,398.55 487.523,394.458 488.353,395.018 484.999,400 				"/>
			</g>
		</g>
	</g>
	<g>
		<g>
			<line style="&st2;" x1="299.5" y1="129" x2="299.5" y2="51"/>
			<g>
				<polygon points="303.59,125.602 302.857,124.92 299.501,128.532 296.144,124.92 295.411,125.602 299.501,130 				"/>
			</g>
			<g>
				<polygon points="303.59,54.398 302.857,55.08 299.501,51.468 296.144,55.08 295.411,54.398 299.501,50 				"/>
			</g>
		</g>
	</g>
</g>
</svg>
